<?xml version="1.0" standalone="no"?>
<!DOCTYPE svg PUBLIC "-//W3C//DTD SVG 20010904//EN"
 "http://www.w3.org/TR/2001/REC-SVG-20010904/DTD/svg10.dtd">
<svg version="1.0" xmlns="http://www.w3.org/2000/svg"
 width="500.000000pt" height="500.000000pt" viewBox="0 0 500.000000 500.000000"
 preserveAspectRatio="xMidYMid meet">

<g transform="translate(0.000000,500.000000) scale(0.100000,-0.100000)"
fill="#000000" stroke="none">
<path d="M0 2500 l0 -2500 2500 0 2500 0 0 2500 0 2500 -2500 0 -2500 0 0
-2500z m2485 478 c61 -15 65 -22 51 -71 -14 -46 -13 -46 -96 -22 -82 23 -191
20 -224 -6 -57 -44 -16 -97 97 -124 156 -38 207 -68 207 -123 0 -12 -11 -34
-25 -47 -32 -33 -88 -33 -185 0 -79 27 -158 33 -178 13 -35 -35 -1 -92 73
-124 58 -25 226 -31 285 -10 24 8 46 14 47 12 2 -2 -5 -24 -14 -51 -24 -64
-59 -79 -164 -72 -81 5 -156 32 -198 70 -58 54 -79 162 -40 211 47 60 124 71
246 35 39 -12 80 -19 89 -15 38 14 -19 45 -141 77 -133 34 -168 51 -184 86
-14 30 -14 78 -1 102 36 68 208 97 355 59z m483 -4 c46 -17 47 -20 31 -77 -9
-34 -13 -38 -32 -32 -98 31 -128 36 -197 32 -116 -6 -180 -45 -166 -102 8 -31
43 -43 162 -54 146 -15 215 -50 243 -124 15 -39 14 -101 -3 -141 -28 -68 -134
-126 -230 -126 -63 0 -184 42 -201 69 -6 11 24 91 35 91 4 0 38 -14 76 -32 58
-27 79 -32 144 -32 86 0 147 23 166 62 28 56 -8 84 -140 106 -121 22 -136 26
-187 53 -60 32 -83 73 -84 144 0 92 61 157 167 179 56 11 161 3 216 -16z
m-2094 -9 c16 -17 48 -109 106 -297 45 -150 85 -281 87 -290 5 -15 -2 -18 -44
-18 l-50 0 -33 115 -33 115 -104 0 -105 0 4 -115 3 -115 -68 0 c-66 0 -68 1
-61 23 4 12 42 137 85 279 79 260 98 312 121 321 32 13 70 6 92 -18z m553 6
c115 -53 135 -224 38 -310 -43 -37 -90 -51 -177 -51 l-68 0 0 -125 0 -125 -51
0 -50 0 2 302 c0 166 3 308 6 315 4 10 37 13 132 13 102 0 134 -4 168 -19z
m298 2 c-47 -109 -96 -289 -110 -398 -14 -110 28 -139 191 -133 153 5 144 -15
144 295 l0 253 45 0 45 0 0 -164 c0 -179 -12 -242 -64 -330 -92 -158 -294
-195 -361 -66 -12 24 -15 80 -15 295 l0 265 66 0 c59 0 65 -2 59 -17z m1775
-33 c0 -53 -4 -58 -29 -36 -26 23 -112 66 -132 66 -18 0 -19 -15 -19 -305 l0
-305 -45 0 -45 0 0 305 c0 267 -2 305 -15 305 -24 0 -86 -28 -121 -55 -18 -14
-35 -25 -38 -25 -3 0 -6 23 -6 50 l0 50 225 0 225 0 0 -50z m320 40 c24 -13
42 -61 130 -355 40 -132 75 -246 77 -252 4 -9 -9 -13 -45 -13 l-50 0 -22 73
c-11 39 -27 90 -34 112 l-13 40 -102 3 -102 3 3 -116 3 -115 -67 0 c-38 0 -68
3 -68 8 0 11 168 561 176 575 26 46 71 60 114 37z m643 -10 c30 -15 31 -19 16
-73 -8 -31 -14 -37 -27 -31 -58 24 -124 35 -202 31 -122 -5 -181 -42 -166
-103 9 -34 31 -42 147 -53 118 -11 160 -23 207 -58 43 -32 62 -72 62 -130 0
-94 -61 -161 -170 -189 -55 -14 -74 -15 -124 -5 -61 13 -129 42 -141 61 -8 12
12 77 26 86 5 3 24 -3 42 -14 40 -25 130 -52 173 -52 101 0 184 42 184 93 0
43 -33 59 -177 88 -192 39 -243 79 -243 189 0 78 45 139 125 168 40 15 232 9
268 -8z m-2719 -956 c6 -16 -10 -29 -19 -14 -3 5 -15 10 -26 10 -14 0 -19 -7
-19 -25 0 -30 24 -43 45 -25 20 17 32 5 15 -15 -18 -22 -67 -19 -80 5 -13 24
-3 67 17 79 20 11 60 2 67 -15z m182 -18 c9 -36 -12 -66 -44 -66 -35 0 -52 17
-52 50 0 32 10 47 35 52 29 6 54 -9 61 -36z m962 28 c24 -17 30 -62 10 -82 -7
-7 -24 -12 -38 -12 -33 0 -50 17 -50 51 0 24 30 59 50 59 3 0 16 -7 28 -16z
m-1563 -4 c-3 -5 -17 -10 -31 -10 -13 0 -24 -4 -24 -10 0 -5 11 -10 25 -10 14
0 25 -4 25 -10 0 -5 -12 -10 -26 -10 -14 0 -23 -4 -19 -10 3 -5 17 -10 31 -10
13 0 24 -4 24 -10 0 -5 -18 -10 -40 -10 l-40 0 0 50 0 50 41 0 c24 0 38 -4 34
-10z m105 -30 c0 -36 3 -40 24 -40 14 0 28 -4 31 -10 4 -6 -10 -10 -34 -10
l-41 0 0 50 c0 28 5 50 10 50 6 0 10 -18 10 -40z m628 8 l8 -33 12 33 c18 52
42 42 42 -18 0 -48 -19 -74 -21 -27 l0 22 -9 -22 c-11 -26 -40 -31 -40 -7 0 8
-5 12 -10 9 -6 -4 -8 -11 -5 -16 4 -5 -1 -9 -9 -9 -12 0 -16 11 -16 50 0 43 3
50 20 50 14 0 22 -10 28 -32z m172 -18 c0 -27 -4 -50 -10 -50 -5 0 -10 23 -10
50 0 28 5 50 10 50 6 0 10 -22 10 -50z m165 40 c-3 -5 -15 -10 -26 -10 -10 0
-19 -4 -19 -10 0 -5 9 -10 20 -10 11 0 20 -4 20 -10 0 -5 -9 -10 -20 -10 -11
0 -20 -4 -20 -10 0 -5 11 -10 25 -10 14 0 25 -4 25 -10 0 -5 -18 -10 -40 -10
l-40 0 0 50 0 50 41 0 c24 0 38 -4 34 -10z m134 -22 l21 -33 0 33 c0 17 5 32
10 32 6 0 10 -22 10 -50 0 -41 -3 -50 -18 -50 -10 0 -23 14 -32 33 l-15 32 -3
-32 c-5 -52 -22 -38 -22 17 0 60 18 66 49 18z m201 19 c0 -8 -9 -22 -20 -32
-25 -23 -25 -35 -1 -35 11 0 23 -4 26 -10 4 -6 -12 -10 -39 -10 -25 0 -46 4
-46 9 0 5 12 23 26 40 24 29 25 31 5 31 -11 0 -23 5 -26 10 -4 6 10 10 34 10
28 0 41 -4 41 -13z m438 1 c7 -7 12 -24 12 -38 0 -35 -17 -50 -57 -50 -33 0
-33 0 -33 50 0 50 0 50 33 50 18 0 38 -5 45 -12z m172 2 c0 -5 -11 -10 -25
-10 -14 0 -25 -4 -25 -10 0 -5 9 -10 20 -10 11 0 20 -4 20 -10 0 -5 -9 -10
-20 -10 -11 0 -20 -4 -20 -10 0 -5 11 -10 25 -10 14 0 25 -4 25 -10 0 -5 -18
-10 -40 -10 l-40 0 0 50 0 50 40 0 c22 0 40 -4 40 -10z m200 -30 c0 -36 3 -40
24 -40 14 0 28 -4 31 -10 4 -6 -10 -10 -34 -10 l-41 0 0 50 c0 28 5 50 10 50
6 0 10 -18 10 -40z m205 -6 c18 -47 13 -72 -9 -41 -16 21 -35 22 -42 2 -10
-25 -27 -17 -20 10 22 88 45 97 71 29z m-658 -171 c8 -20 -4 -28 -22 -13 -20
16 -45 6 -45 -20 0 -26 25 -36 45 -20 19 16 28 9 19 -14 -4 -10 -18 -16 -40
-16 -28 0 -35 5 -40 25 -9 35 3 73 24 77 26 6 53 -3 59 -19z m-1369 5 c7 -7
12 -24 12 -38 0 -35 -17 -50 -57 -50 -33 0 -33 0 -33 50 0 50 0 50 33 50 18 0
38 -5 45 -12z m172 2 c0 -5 -11 -10 -25 -10 -14 0 -25 -4 -25 -10 0 -5 9 -10
20 -10 11 0 20 -4 20 -10 0 -5 -9 -10 -20 -10 -11 0 -20 -4 -20 -10 0 -5 11
-10 25 -10 14 0 25 -4 25 -10 0 -5 -18 -10 -40 -10 l-40 0 0 50 0 50 40 0 c22
0 40 -4 40 -10z m167 -5 c8 -22 -4 -30 -22 -15 -20 16 -45 6 -45 -20 0 -26 25
-36 45 -20 19 16 28 9 19 -14 -8 -22 -70 -22 -78 0 -10 27 -7 72 7 77 27 11
68 6 74 -8z m158 -31 c18 -47 13 -72 -9 -41 -16 21 -35 22 -42 2 -4 -8 -12
-15 -20 -15 -10 0 -11 6 -4 25 6 14 14 36 20 50 15 38 35 30 55 -21z m148 14
l16 -33 0 33 c1 53 21 36 21 -18 0 -58 -20 -68 -44 -22 l-15 27 -1 -27 c0 -18
-5 -28 -15 -28 -11 0 -15 12 -15 50 0 42 3 50 18 50 11 0 25 -14 35 -32z m205
20 c7 -7 12 -24 12 -38 0 -35 -17 -50 -57 -50 -33 0 -33 0 -33 50 0 50 0 50
33 50 18 0 38 -5 45 -12z m167 2 c-3 -5 -15 -10 -26 -10 -10 0 -19 -4 -19 -10
0 -5 12 -10 26 -10 14 0 23 -4 19 -10 -3 -5 -15 -10 -26 -10 -10 0 -19 -4 -19
-10 0 -5 11 -10 25 -10 14 0 25 -4 25 -10 0 -5 -18 -10 -40 -10 l-40 0 0 50 0
50 41 0 c24 0 38 -4 34 -10z m138 -22 l16 -33 0 33 c1 53 21 36 21 -18 0 -57
-22 -69 -43 -24 l-12 27 -5 -23 c-11 -47 -30 -34 -30 19 0 43 3 51 18 51 11 0
25 -14 35 -32z m327 -18 c0 -38 -4 -50 -15 -50 -11 0 -15 12 -15 50 0 38 4 50
15 50 11 0 15 -12 15 -50z m154 3 c17 -49 13 -69 -8 -40 -16 21 -35 22 -42 2
-10 -25 -27 -17 -20 10 22 88 46 98 70 28z"/>
<path d="M751 2899 c-20 -32 -35 -107 -47 -231 l-6 -68 101 0 c55 0 101 3 101
8 0 4 -22 77 -49 162 -52 169 -65 186 -100 129z"/>
<path d="M1220 2799 l0 -182 52 7 c28 4 64 14 79 21 64 33 96 123 74 207 -21
82 -82 128 -172 128 l-33 0 0 -181z"/>
<path d="M3723 2924 c-24 -10 -63 -187 -63 -290 l0 -34 100 0 c55 0 100 1 100
3 0 2 -7 23 -14 48 -8 24 -31 97 -51 162 -34 111 -42 123 -72 111z"/>
<path d="M1854 1995 c-9 -23 3 -45 26 -45 16 0 20 7 20 30 0 23 -4 30 -20 30
-11 0 -23 -7 -26 -15z"/>
<path d="M2836 1995 c-8 -23 4 -45 25 -45 14 0 19 7 19 30 0 23 -5 30 -19 30
-10 0 -21 -7 -25 -15z"/>
<path d="M3110 1980 c0 -23 5 -30 19 -30 19 0 31 25 24 48 -3 6 -13 12 -24 12
-14 0 -19 -7 -19 -30z"/>
<path d="M1670 1780 c0 -25 4 -31 18 -28 11 2 17 12 17 28 0 16 -6 26 -17 28
-14 3 -18 -3 -18 -28z"/>
<path d="M2510 1780 c0 -23 5 -30 19 -30 19 0 31 25 24 48 -3 6 -13 12 -24 12
-14 0 -19 -7 -19 -30z"/>
</g>
</svg>
